<svg width="166" height="140" viewBox="0 0 166 140" fill="none" xmlns="http://www.w3.org/2000/svg">
<path d="M25.4571 7.48173C24.3237 8.78605 24.0184 10.6193 25.2276 11.6701C25.9069 12.2604 27.009 12.6935 28.5294 11.63L29.5986 10.8661C30.0361 10.5547 30.5723 10.3768 30.9663 10.7191C31.4011 11.097 31.4374 11.7962 30.9533 12.3532C30.54 12.8288 29.8143 13.0328 29.3524 12.6313L28.2425 13.9085C29.574 15.0655 31.1601 14.393 32.1046 13.306C33.2499 11.9881 33.2086 10.3068 32.176 9.40948C31.2385 8.59481 30.1548 8.60698 28.8151 9.51747L27.8675 10.1963C27.3456 10.5774 26.833 10.7282 26.4118 10.3622C25.9363 9.94893 25.9591 9.18179 26.5966 8.4481C27.2224 7.728 28.0468 7.65746 28.5495 8.09431L29.6239 6.85791C28.2688 5.72802 26.4843 6.29968 25.4571 7.48173Z" fill="#1E00D6"/>
<path d="M16.9377 19.4221C16.2502 20.6048 16.1445 21.8967 16.5362 22.978L18.0734 22.5184C17.8508 21.8268 17.9261 21.0169 18.3513 20.2855C19.1383 18.9316 20.774 18.4459 22.159 19.2511C23.544 20.0562 23.9157 21.7089 23.1286 23.0628C22.7035 23.7942 22.0369 24.2603 21.3258 24.4091L21.687 25.9724C22.8204 25.7777 23.8909 25.0466 24.5784 23.8639C25.7997 21.7631 25.3487 19.0649 23.0455 17.726C20.7424 16.3872 18.159 17.3213 16.9377 19.4221Z" fill="#1E00D6"/>
<path d="M18.9584 36.4407C19.3163 35.4218 19.0022 34.4148 17.7527 33.5181L19.536 34.1444L20.1265 32.4631L12.1954 29.6776L11.6049 31.3589L14.458 32.361C16.5979 33.1125 17.9048 34.3346 17.3978 35.7782C17.2844 36.1008 17.0734 36.4846 16.7145 36.8546L18.1925 37.698C18.4348 37.4969 18.7675 36.9842 18.9584 36.4407Z" fill="#1E00D6"/>
<path d="M7.63066 46.196C7.29144 48.5659 8.74942 50.8293 11.3865 51.2068C14.0237 51.5843 16.0403 49.8182 16.3795 47.4484C16.7187 45.0785 15.276 42.8355 12.6389 42.458C10.0018 42.0805 7.96989 43.8262 7.63066 46.196ZM9.26995 46.4307C9.474 45.0052 10.7674 43.9721 12.3889 44.2042C13.9926 44.4337 14.9442 45.7882 14.7402 47.2137C14.5362 48.6392 13.2402 49.6901 11.6365 49.4606C10.015 49.2285 9.06591 47.8562 9.26995 46.4307Z" fill="#1E00D6"/>
<path d="M7.0982 60.3262L20.0691 59.8958L20.0106 58.1328L7.03971 58.5632L7.0982 60.3262Z" fill="#1E00D6"/>
<path d="M8.1983 70.448L20.9935 68.2773L20.6984 66.5382L7.90326 68.7088L8.1983 70.448Z" fill="#1E00D6"/>
<path d="M22.9627 90.8138C23.5529 89.8793 23.4618 88.6086 22.9151 87.5539C21.8712 85.5404 19.4673 84.6578 17.0862 85.8922C14.7211 87.1183 14.0249 89.6081 15.077 91.6376C15.5989 92.6443 16.6174 93.4747 17.7212 93.5311L16.6026 94.111L17.4145 95.677L28.9362 89.704L28.1244 88.1379L22.9627 90.8138ZM16.6383 91.0512C15.9756 89.7727 16.5238 88.1707 17.914 87.45C19.3203 86.7209 20.8815 87.2294 21.5443 88.5079C22.1408 89.6584 21.8518 91.3694 20.3497 92.1481C18.8475 92.9269 17.2928 92.3136 16.6383 91.0512Z" fill="#1E00D6"/>
<path d="M24.146 105.46C25.6774 107.3 28.3344 107.735 30.382 106.031C32.4297 104.327 32.4706 101.647 30.9393 99.8064C29.4079 97.9663 26.7762 97.5336 24.7286 99.2377C22.6809 100.942 22.6146 103.62 24.146 105.46ZM25.4189 104.401C24.4977 103.294 24.5979 101.641 25.857 100.594C27.1022 99.5573 28.7452 99.7589 29.6664 100.866C30.5875 101.973 30.4988 103.639 29.2536 104.675C27.9946 105.723 26.34 105.507 25.4189 104.401Z" fill="#1E00D6"/>
<path d="M41.255 117.336L43.071 111.528L41.7434 110.538L36.7094 113.947L38.5254 108.139L36.9958 106.998L34.5254 115.642L35.6942 116.513L40.987 112.938L39.1287 119.074L40.3264 119.967L47.8186 115.068L46.289 113.927L41.255 117.336Z" fill="#1E00D6"/>
<path d="M56.5215 118.881C55.6942 118.527 54.2689 118.426 53.4112 119.194L53.9214 118.003L52.2998 117.308L48.9905 125.035L50.612 125.73L52.3907 121.577C53.0781 119.972 54.5506 119.917 55.5599 120.349C56.5527 120.774 56.9878 121.862 56.4493 123.119L54.5997 127.438L56.2213 128.132L58.1133 123.714C59.0724 121.521 58.4739 119.717 56.5215 118.881Z" fill="#1E00D6"/>
<path d="M77.4765 124.188L77.7523 121.05L75.9951 120.896L75.7193 124.033L74.2131 123.901L74.0838 125.371L75.59 125.504L74.9832 132.407L76.7405 132.562L77.3472 125.658L79.1403 125.816L79.2696 124.346L77.4765 124.188Z" fill="#1E00D6"/>
<path d="M89.405 132.692C91.7883 132.466 93.6469 130.518 93.3958 127.866C93.1446 125.214 90.9551 123.668 88.5718 123.893C86.1884 124.119 84.346 126.047 84.5971 128.699C84.8483 131.352 87.0216 132.918 89.405 132.692ZM89.2488 131.043C87.8153 131.179 86.5077 130.164 86.3533 128.533C86.2006 126.92 87.2943 125.678 88.7279 125.542C90.1615 125.406 91.4869 126.42 91.6396 128.032C91.7941 129.663 90.6824 130.908 89.2488 131.043Z" fill="#1E00D6"/>
<path d="M113.719 126.303C115.293 125.591 116.336 124.052 115.675 122.593C115.304 121.773 114.484 120.919 112.658 121.251L111.368 121.499C110.84 121.599 110.279 121.537 110.063 121.062C109.826 120.537 110.085 119.886 110.757 119.582C111.331 119.323 112.076 119.44 112.328 119.998L113.87 119.3C113.143 117.693 111.421 117.642 110.109 118.236C108.518 118.956 107.854 120.501 108.418 121.747C108.93 122.879 109.919 123.32 111.517 123.052L112.661 122.83C113.295 122.702 113.823 122.779 114.053 123.287C114.313 123.861 113.972 124.549 113.087 124.949C112.217 125.342 111.439 125.063 111.164 124.456L109.672 125.131C110.432 126.723 112.292 126.948 113.719 126.303Z" fill="#1E00D6"/>
<path d="M127.153 113.014C125.614 110.861 123.13 110.513 121.183 111.904C119.235 113.296 118.658 115.832 120.207 118C121.756 120.167 124.344 120.508 126.321 119.095C127.624 118.164 128.415 116.67 128.199 115.098L126.649 115.343C126.718 116.245 126.233 117.145 125.427 117.721C124.329 118.505 123.101 118.52 122.115 117.543L127.563 113.65C127.421 113.42 127.289 113.205 127.153 113.014ZM121.303 116.376C120.692 115.087 121.095 113.98 122.15 113.227C123.204 112.473 124.42 112.534 125.33 113.498L121.303 116.376Z" fill="#1E00D6"/>
<path d="M138.061 102.176C136.097 100.402 133.597 100.593 131.992 102.37C130.387 104.147 130.367 106.747 132.344 108.533C134.321 110.318 136.922 110.097 138.551 108.293C139.625 107.105 140.077 105.476 139.53 103.987L138.068 104.558C138.329 105.425 138.047 106.407 137.384 107.142C136.479 108.144 135.282 108.422 134.11 107.678L138.598 102.709C138.41 102.515 138.235 102.332 138.061 102.176ZM133.067 106.712C132.194 105.584 132.351 104.416 133.22 103.454C134.088 102.493 135.289 102.291 136.385 103.038L133.067 106.712Z" fill="#1E00D6"/>
<path d="M146.581 77.0606C146.291 77.8553 146.128 79.1945 147.25 80.371C146.029 80.4616 145.069 81.203 144.649 82.3528C144.254 83.4349 144.439 84.71 145.252 85.3708L143.95 84.8954L143.345 86.5524L151.241 89.4358L151.846 87.7789L147.602 86.2291C145.996 85.6425 145.719 84.3534 146.096 83.322C146.454 82.3414 147.496 81.9553 148.781 82.4245L153.211 84.0422L153.822 82.3683L149.882 80.9297C148.225 80.3246 147.542 79.3087 148.035 78.013C148.424 76.9478 149.465 76.5617 150.75 77.0309L155.18 78.6486L155.792 76.9747L151.277 75.3262C149.028 74.505 147.304 75.0824 146.581 77.0606Z" fill="#1E00D6"/>
<path d="M157.919 65.1665C158.159 62.7846 156.609 60.5837 153.958 60.3162C151.308 60.0486 149.366 61.8969 149.126 64.2788C148.885 66.6607 150.42 68.8419 153.07 69.1095C155.721 69.377 157.678 67.5484 157.919 65.1665ZM156.271 65.0002C156.127 66.4329 154.877 67.5189 153.248 67.3544C151.636 67.1917 150.629 65.8779 150.773 64.4452C150.918 63.0124 152.169 61.9085 153.781 62.0712C155.411 62.2358 156.416 63.5675 156.271 65.0002Z" fill="#1E00D6"/>
<path d="M149.056 49.4503C149.159 50.5255 149.866 51.3079 151.376 51.598L149.495 51.7772L149.664 53.5512L158.032 52.7541L157.863 50.9801L154.853 51.2669C152.595 51.4819 150.896 50.9205 150.751 49.3974C150.718 49.0569 150.749 48.6201 150.92 48.1337L149.224 47.9878C149.089 48.272 149.002 48.8769 149.056 49.4503Z" fill="#1E00D6"/>
<path d="M149.781 33.1393C147.246 33.8973 146.111 36.1341 146.797 38.4278C147.483 40.7214 149.695 42.0889 152.248 41.3258C154.8 40.5626 155.961 38.2241 155.265 35.8959C154.806 34.361 153.648 33.129 152.092 32.8241L151.821 34.3704C152.697 34.597 153.391 35.3477 153.675 36.2962C154.061 37.5896 153.678 38.7564 152.434 39.3725L150.516 32.9572C150.252 33.0173 150.005 33.0722 149.781 33.1393ZM151.066 39.7626C149.649 39.9234 148.733 39.183 148.361 37.9413C147.99 36.6996 148.441 35.569 149.648 35.0201L151.066 39.7626Z" fill="#1E00D6"/>
<path d="M150.348 23.4681C150.041 22.857 149.332 22.5688 148.721 22.876C148.11 23.1833 147.918 23.9243 148.225 24.5354C148.524 25.1304 149.233 25.4187 149.845 25.1114C150.456 24.8041 150.647 24.0631 150.348 23.4681Z" fill="#1E00D6"/>
<path d="M145.191 14.6617C144.804 14.0974 144.063 13.9072 143.498 14.2938C142.934 14.6805 142.844 15.4405 143.231 16.0048C143.607 16.5541 144.349 16.7444 144.913 16.3577C145.477 15.9711 145.567 15.211 145.191 14.6617Z" fill="#1E00D6"/>
<path d="M138.896 6.62887C138.437 6.12176 137.677 6.03293 137.17 6.49194C136.663 6.95095 136.676 7.71621 137.135 8.22333C137.581 8.7171 138.342 8.80592 138.849 8.34691C139.356 7.8879 139.343 7.12264 138.896 6.62887Z" fill="#1E00D6"/>
</svg>
