<svg width="92" height="77" viewBox="0 0 92 77" fill="none" xmlns="http://www.w3.org/2000/svg">
<path d="M11.1435 2.5678C10.262 3.58228 10.0245 5.0081 10.965 5.82539C11.4934 6.28454 12.3506 6.62141 13.5331 5.79424L14.3647 5.20006C14.705 4.95788 15.122 4.81949 15.4285 5.0858C15.7667 5.37965 15.7948 5.92349 15.4183 6.35675C15.0969 6.72661 14.5325 6.88527 14.1732 6.57304L13.31 7.56639C14.3456 8.46632 15.5792 7.94321 16.3138 7.09781C17.2046 6.07276 17.1724 4.76508 16.3693 4.06716C15.6402 3.43353 14.7973 3.443 13.7553 4.15116L13.0183 4.67916C12.6123 4.97556 12.2137 5.09282 11.8861 4.80814C11.5162 4.48674 11.5339 3.89007 12.0298 3.31942C12.5165 2.75935 13.1577 2.70448 13.5487 3.04425L14.3844 2.08261C13.3304 1.20381 11.9425 1.64843 11.1435 2.5678Z" fill="#1E00D6"/>
<path d="M6.03042 10.093C5.49567 11.0129 5.41352 12.0177 5.71811 12.8587L6.91377 12.5012C6.74064 11.9633 6.79916 11.3334 7.12986 10.7646C7.74201 9.71157 9.01422 9.33378 10.0914 9.96C11.1686 10.5862 11.4578 11.8717 10.8456 12.9247C10.5149 13.4935 9.99646 13.8561 9.44338 13.9718L9.72433 15.1877C10.6059 15.0362 11.4384 14.4676 11.9732 13.5478C12.9231 11.9138 12.5723 9.81522 10.781 8.77387C8.98967 7.73252 6.9803 8.45907 6.03042 10.093Z" fill="#1E00D6"/>
<path d="M8.9597 20.8774C9.23804 20.0848 8.99377 19.3016 8.02197 18.6042L9.40892 19.0913L9.86819 17.7836L3.69958 15.6171L3.2403 16.9248L5.45942 17.7042C7.12375 18.2887 8.14021 19.2393 7.74588 20.362C7.65774 20.613 7.49356 20.9115 7.21444 21.1992L8.36401 21.8552C8.55248 21.6988 8.81124 21.3001 8.9597 20.8774Z" fill="#1E00D6"/>
<path d="M0.910259 26.3C0.646416 28.1432 1.7804 29.9037 3.8315 30.1973C5.88259 30.4909 7.45106 29.1173 7.7149 27.274C7.97874 25.4308 6.85663 23.6862 4.80554 23.3926C2.75444 23.099 1.1741 24.4568 0.910259 26.3ZM2.18526 26.4825C2.34397 25.3738 3.34998 24.5703 4.61112 24.7508C5.85841 24.9293 6.5986 25.9828 6.4399 27.0915C6.28119 28.2002 5.27319 29.0176 4.02591 28.8391C2.76476 28.6586 2.02656 27.5912 2.18526 26.4825Z" fill="#1E00D6"/>
<path d="M0.834278 34.2075L10.9227 33.8728L10.8772 32.5015L0.788782 32.8362L0.834278 34.2075Z" fill="#1E00D6"/>
<path d="M1.58776 40.2551L11.5396 38.5668L11.3101 37.2142L1.35828 38.9025L1.58776 40.2551Z" fill="#1E00D6"/>
<path d="M12.2539 52.7118C12.7129 51.985 12.6421 50.9967 12.2168 50.1764C11.405 48.6103 9.5352 47.9239 7.68327 48.8839C5.84376 49.8375 5.30227 51.7741 6.12058 53.3525C6.52652 54.1356 7.31867 54.7815 8.17716 54.8253L7.30712 55.2763L7.93858 56.4944L16.9 51.8487L16.2685 50.6306L12.2539 52.7118ZM7.33494 52.8965C6.81946 51.9021 7.24582 50.6561 8.32715 50.0955C9.42091 49.5285 10.6352 49.924 11.1507 50.9183C11.6146 51.8132 11.3899 53.144 10.2215 53.7497C9.05318 54.3554 7.84397 53.8784 7.33494 52.8965Z" fill="#1E00D6"/>
<path d="M11.7992 61.5137C12.9902 62.9449 15.0568 63.2832 16.6494 61.9578C18.242 60.6324 18.2739 58.5477 17.0828 57.1165C15.8917 55.6853 13.8449 55.3488 12.2523 56.6742C10.6596 57.9996 10.6081 60.0825 11.7992 61.5137ZM12.7892 60.6898C12.0727 59.8289 12.1507 58.5437 13.1299 57.7288C14.0984 56.9228 15.3764 57.0796 16.0928 57.9404C16.8092 58.8013 16.7403 60.0973 15.7718 60.9033C14.7925 61.7182 13.5056 61.5506 12.7892 60.6898Z" fill="#1E00D6"/>
<path d="M23.2981 68.5456L24.7105 64.028L23.678 63.2581L19.7626 65.9096L21.1751 61.392L19.9854 60.5049L18.0639 67.2276L18.9731 67.9054L23.0896 65.1246L21.6443 69.8971L22.5759 70.5916L28.4031 66.7812L27.2134 65.8941L23.2981 68.5456Z" fill="#1E00D6"/>
<path d="M32.2729 67.6654C31.6295 67.3898 30.521 67.311 29.8538 67.9087L30.2506 66.9821L28.9894 66.4419L26.4155 72.4519L27.6767 72.9921L29.0601 69.7618C29.5948 68.5135 30.74 68.4709 31.525 68.8072C32.2972 69.1379 32.6357 69.9834 32.2168 70.9615L30.7782 74.3204L32.0394 74.8605L33.5111 71.4244C34.257 69.7183 33.7915 68.3158 32.2729 67.6654Z" fill="#1E00D6"/>
<path d="M43.9232 70.29L44.1377 67.8494L42.7709 67.7292L42.5564 70.1698L41.3849 70.0669L41.2844 71.2104L42.4559 71.3134L41.984 76.6827L43.3507 76.8028L43.8226 71.4335L45.2173 71.5561L45.3178 70.4125L43.9232 70.29Z" fill="#1E00D6"/>
<path d="M51.34 76.7232C53.1938 76.5477 54.6394 75.0326 54.444 72.9698C54.2487 70.9071 52.5457 69.7043 50.692 69.8798C48.8383 70.0554 47.4053 71.5551 47.6006 73.6179C47.796 75.6807 49.4863 76.8987 51.34 76.7232ZM51.2186 75.4409C50.1036 75.5465 49.0866 74.7569 48.9665 73.4886C48.8477 72.2342 49.6984 71.2677 50.8134 71.1621C51.9284 71.0565 52.9593 71.8448 53.0781 73.0992C53.1982 74.3675 52.3336 75.3353 51.2186 75.4409Z" fill="#1E00D6"/>
<path d="M65.5001 72.6243C66.7246 72.0703 67.5355 70.8736 67.0219 69.7384C66.7333 69.1006 66.0949 68.4368 64.6751 68.695L63.6714 68.8879C63.2611 68.9659 62.8244 68.9177 62.657 68.5478C62.4723 68.1396 62.6737 67.6336 63.1966 67.397C63.6431 67.195 64.2222 67.2864 64.4184 67.7201L65.6174 67.1776C65.0519 65.9276 63.7126 65.8882 62.6921 66.3499C61.4549 66.9096 60.9383 68.1114 61.3769 69.0808C61.7751 69.9609 62.545 70.3041 63.7874 70.0954L64.6776 69.9232C65.1702 69.8232 65.5814 69.883 65.7603 70.2784C65.9623 70.7249 65.6972 71.2597 65.0084 71.5713C64.3324 71.8772 63.7268 71.6595 63.5132 71.1875L62.3525 71.7127C62.9436 72.9511 64.3904 73.1263 65.5001 72.6243Z" fill="#1E00D6"/>
<path d="M73.8577 63.2339C72.6612 61.5594 70.7293 61.288 69.2144 62.3706C67.6994 63.4532 67.2506 65.4257 68.4553 67.1116C69.66 68.7974 71.6732 69.0622 73.2109 67.9634C74.2247 67.239 74.8396 66.0768 74.6718 64.8547L73.4659 65.0453C73.5197 65.7467 73.1423 66.4466 72.5158 66.8943C71.6615 67.5048 70.7062 67.5163 69.9395 66.7565L74.1768 63.7285C74.0661 63.5495 73.9635 63.3819 73.8577 63.2339ZM69.3078 65.8485C68.8324 64.846 69.1464 63.9851 69.9665 63.399C70.7866 62.813 71.7322 62.86 72.4403 63.6101L69.3078 65.8485Z" fill="#1E00D6"/>
<path d="M79.9735 56.5319C78.4462 55.1525 76.501 55.3011 75.253 56.6829C74.005 58.0648 73.989 60.0877 75.5267 61.4765C77.0644 62.8652 79.0877 62.6929 80.3545 61.2902C81.1896 60.3655 81.5414 59.0987 81.1157 57.9408L79.9786 58.3852C80.1814 59.0588 79.9626 59.8233 79.4465 60.3948C78.7428 61.174 77.8121 61.3899 76.9005 60.8118L80.3911 56.9468C80.2446 56.7956 80.1086 56.6539 79.9735 56.5319ZM76.089 60.0601C75.41 59.1828 75.5323 58.2745 76.2079 57.5264C76.8835 56.7784 77.8172 56.6218 78.6695 57.2029L76.089 60.0601Z" fill="#1E00D6"/>
<path d="M83.7006 40.5993C83.4749 41.2174 83.3479 42.259 84.221 43.174C83.2712 43.2445 82.524 43.8212 82.1974 44.7154C81.8901 45.5571 82.0347 46.5488 82.6667 47.0628L81.6541 46.693L81.1835 47.9818L87.3248 50.2245L87.7954 48.9357L84.4946 47.7304C83.2453 47.2741 83.0302 46.2715 83.3231 45.4693C83.6017 44.7066 84.4119 44.4063 85.4113 44.7712L88.8568 46.0295L89.3322 44.7276L86.2681 43.6086C84.9793 43.138 84.4482 42.3478 84.8311 41.34C85.1336 40.5116 85.9438 40.2112 86.9432 40.5762L90.3887 41.8344L90.8641 40.5325L87.3529 39.2503C85.6039 38.6116 84.2625 39.0607 83.7006 40.5993Z" fill="#1E00D6"/>
<path d="M91.2342 35.1296C91.4213 33.277 90.2151 31.5652 88.1536 31.3571C86.092 31.149 84.582 32.5866 84.395 34.4392C84.208 36.2918 85.4016 37.9882 87.4632 38.1963C89.5247 38.4044 91.0472 36.9822 91.2342 35.1296ZM89.9528 35.0002C89.8403 36.1146 88.8685 36.9592 87.601 36.8313C86.3473 36.7047 85.564 35.6829 85.6765 34.5685C85.789 33.4542 86.7621 32.5956 88.0158 32.7222C89.2833 32.8501 90.0653 33.8859 89.9528 35.0002Z" fill="#1E00D6"/>
<path d="M84.1079 25.9123C84.1875 26.7485 84.7377 27.3571 85.9124 27.5827L84.449 27.7221L84.5805 29.1018L91.089 28.4819L90.9576 27.1021L88.6162 27.3251C86.8601 27.4924 85.5388 27.0557 85.4259 25.8711C85.4007 25.6063 85.4246 25.2665 85.5573 24.8882L84.2386 24.7748C84.1331 24.9958 84.0654 25.4663 84.1079 25.9123Z" fill="#1E00D6"/>
<path d="M84.8885 15.5102C82.9168 16.0998 82.0342 17.8395 82.5676 19.6235C83.101 21.4075 84.8219 22.4711 86.807 21.8775C88.7922 21.2839 89.695 19.4651 89.1535 17.6543C88.7966 16.4605 87.8963 15.5022 86.6856 15.2651L86.4754 16.4678C87.1564 16.6441 87.6963 17.2279 87.9169 17.9656C88.2177 18.9716 87.9191 19.8791 86.9519 20.3583L85.4599 15.3686C85.2547 15.4153 85.0629 15.4581 84.8885 15.5102ZM85.8882 20.6617C84.7858 20.7868 84.073 20.2109 83.7842 19.2451C83.4954 18.2794 83.8462 17.4 84.7853 16.9731L85.8882 20.6617Z" fill="#1E00D6"/>
<path d="M86.3152 10.9285C86.0762 10.4532 85.5247 10.2291 85.0494 10.468C84.5741 10.707 84.4251 11.2834 84.6641 11.7587C84.8968 12.2215 85.4483 12.4456 85.9236 12.2066C86.3989 11.9677 86.5479 11.3913 86.3152 10.9285Z" fill="#1E00D6"/>
<path d="M83.1619 5.69288C82.8612 5.25403 82.2846 5.10607 81.8457 5.40679C81.4069 5.70752 81.3367 6.29866 81.6375 6.73751C81.9303 7.16481 82.5069 7.31278 82.9457 7.01205C83.3846 6.71132 83.4547 6.12018 83.1619 5.69288Z" fill="#1E00D6"/>
<path d="M79.3333 0.928896C78.9763 0.534474 78.385 0.465387 77.9906 0.822395C77.5962 1.1794 77.6062 1.77461 77.9632 2.16903C78.3108 2.55307 78.9021 2.62216 79.2965 2.26515C79.6909 1.90814 79.6809 1.31294 79.3333 0.928896Z" fill="#1E00D6"/>
</svg>
